<?xml version="1.0" ?><svg xmlns="http://www.w3.org/2000/svg" xmlns:xlink="http://www.w3.org/1999/xlink" width="512" height="512"><path transform="scale(0.8 0.8)" d="M529.453 481.526L129.709 481.853C112.805 481.84 94.2329 482.39 91.0053 459.693C90.3838 455.322 90.7335 450.524 90.7288 446.096L90.7007 152.277C90.7057 134.206 87.2424 109.226 112.298 105.726L519.121 105.671C523.185 105.673 528.25 105.166 532.2 106.119L532.656 106.239C550.313 110.699 550.941 125.091 550.959 139.337L550.957 435.121C550.948 453.355 554.763 477.982 529.453 481.526ZM131.332 147.16L131.407 377.335L509.531 377.234C510.737 376.68 510.565 375.414 510.565 374.503L510.442 147.28L131.332 147.16ZM116.518 427.014L115.239 454.528C117.346 455.105 120.573 454.712 122.804 454.713L526.496 454.594L526.451 427.178L116.518 427.014Z"/><path transform="scale(0.8 0.8)" d="M324.024 275.676C314.158 276.502 304.099 272.748 297.887 264.751C294.636 260.565 292.931 255.355 290.294 250.79C286.259 243.804 269.282 222.953 281.785 216.565L280.536 203.506C279.311 192.413 278.365 178.934 288.195 171.404C290.329 169.769 292.8 168.665 295.015 167.164C302.16 162.321 300.483 161.775 309.448 161.246L317.931 160.496C326.531 159.45 338.046 162.109 344.249 168.485C348.851 173.216 347.126 173.48 353.453 177.999C364.201 185.676 362.416 200.457 360.768 211.875C359.46 220.943 363.168 216.477 363.837 221.492C365.464 233.68 356.164 241.341 350.735 250.672C343.297 263.455 342.7 273.05 324.024 275.676Z"/><path transform="scale(0.8 0.8)" d="M403.142 325.66L403.172 342.745C403.176 349.2 404.565 357.966 397.059 360.911L396.306 361.211C394.293 361.998 391.302 361.631 389.125 361.632L249.208 361.578C239.525 361.298 238.94 354.687 238.95 347.212L239.018 312.864C239.072 294.275 236.997 286.049 257.695 279.572L289.117 268.766C296.027 268.794 299.443 288.184 301.265 293.107C304.116 300.809 308.059 308.367 310.452 316.176C310.982 310.955 311.229 305.361 312.51 300.275L312.652 299.723C310.377 297.421 307.021 288.248 309.754 285.253C313.475 284.108 330.317 283.027 332.728 285.938C333.297 292.559 329.091 297.16 329.084 299.835L330.435 316.295L341.042 290.678C343.804 283.432 345.309 274.741 351.033 269.142C355.023 269.878 358.634 271.374 362.42 272.777L372.436 276.18C386.585 280.722 401.994 280.357 402.322 299.332L402.466 309.993C402.515 312.003 402.89 313.961 403.015 315.962L403.142 325.66Z"/><path transform="scale(0.8 0.8)" d="M405.781 537.545L194.021 537.424C192.282 523.887 199.544 506.99 214.574 505.319C220.365 504.676 226.767 506.197 232.388 505.141C232.884 505.048 232.432 503.623 232.891 502.914L235.331 502.613L399.872 502.494C402.732 502.502 406.57 502.132 409.258 503.105C410.631 503.603 409.766 504.516 410.156 505.31L421.508 505.297C424.532 505.302 427.552 505.167 430.488 506.022L431.094 506.202C444.591 510.074 447.403 525.237 447.792 537.444L405.781 537.545Z"/></svg>